<?xml version="1.0" standalone="no"?>
<!DOCTYPE svg PUBLIC "-//W3C//DTD SVG 20010904//EN"
 "http://www.w3.org/TR/2001/REC-SVG-20010904/DTD/svg10.dtd">
<svg version="1.0" xmlns="http://www.w3.org/2000/svg"
 width="500.000000pt" height="500.000000pt" viewBox="0 0 500.000000 500.000000"
 preserveAspectRatio="xMidYMid meet">
<metadata>
Created by potrace 1.14, written by Peter Selinger 2001-2017
</metadata>
<g transform="translate(0.000000,500.000000) scale(0.100000,-0.100000)"
fill="#000000" stroke="none">
<path d="M160 4785 c-38 -21 -74 -38 -84 -39 -11 -1 -28 -56 -18 -57 4 0 -3
-4 -16 -9 -17 -7 -22 -16 -20 -40 1 -16 8 -30 14 -30 9 0 8 -9 -3 -31 -13 -25
-13 -35 -3 -54 7 -13 9 -28 6 -34 -4 -6 2 -18 13 -27 10 -9 17 -23 14 -30 -3
-8 2 -14 11 -14 9 0 16 -8 16 -20 0 -11 5 -19 12 -18 12 3 13 -2 16 -50 1 -13
6 -21 11 -18 4 3 14 -28 22 -70 7 -41 20 -82 29 -92 9 -9 14 -28 12 -43 -2
-14 3 -32 11 -41 19 -18 61 -190 55 -223 -3 -13 -2 -22 2 -20 12 7 17 -15 16
-62 0 -22 2 -39 7 -36 4 2 7 -20 7 -49 0 -37 -3 -49 -10 -38 -7 12 -9 10 -8
-7 1 -12 7 -19 15 -16 10 4 13 -13 13 -71 0 -54 -4 -76 -12 -76 -10 0 -10 -2
0 -9 8 -5 11 -17 7 -34 -4 -14 -3 -32 1 -39 11 -16 13 -29 19 -103 3 -33 9
-76 12 -95 11 -63 7 -130 -13 -240 -4 -19 -8 -53 -9 -75 -1 -22 -5 -50 -9 -62
-4 -12 -3 -24 2 -27 10 -6 8 -40 -3 -67 -4 -10 0 -19 9 -22 13 -5 15 -20 10
-84 -3 -43 -5 -100 -4 -128 1 -27 2 -70 2 -95 0 -25 0 -70 1 -100 0 -53 0 -86
-4 -265 -1 -44 -3 -83 -6 -87 -2 -4 -6 -60 -8 -125 -3 -65 -8 -126 -11 -135
-3 -10 -2 -22 1 -28 4 -6 8 -51 10 -100 3 -50 10 -109 16 -133 12 -45 14 -166
3 -231 -3 -22 -8 -76 -9 -120 -4 -84 -7 -110 -17 -136 -11 -25 -15 -79 -6 -74
4 3 8 -2 8 -10 0 -9 -4 -16 -9 -16 -4 0 -5 -18 -1 -40 4 -22 3 -43 -1 -46 -5
-3 -8 -34 -6 -70 2 -36 -1 -68 -5 -70 -4 -3 -8 -13 -8 -22 0 -17 -51 -46 -77
-45 -7 0 -11 -2 -9 -6 2 -3 -4 -24 -14 -46 -11 -22 -19 -47 -20 -55 0 -9 -6
-24 -14 -35 -17 -25 -12 -87 10 -137 13 -28 23 -38 50 -43 62 -11 268 -5 364
11 68 12 178 18 390 20 162 2 386 7 498 9 275 8 680 16 717 14 17 0 39 -1 50
0 86 2 303 -1 465 -7 107 -4 211 -5 231 -1 21 3 44 2 52 -2 8 -5 43 -4 78 2
46 8 111 7 234 -2 214 -16 223 -16 440 -1 156 11 208 10 395 -4 118 -9 301
-18 405 -20 105 -2 206 -6 225 -9 79 -13 150 -14 175 -1 48 25 75 64 77 112 0
24 1 50 2 56 1 7 -8 14 -19 17 -11 2 -33 14 -48 27 -16 13 -39 24 -53 24 -13
0 -24 4 -24 8 0 5 -17 16 -39 25 -45 20 -50 36 -46 142 1 40 -1 79 -6 86 -4 7
-3 19 2 25 7 8 5 24 -5 49 -9 21 -14 41 -11 45 3 5 0 12 -6 15 -5 4 -8 13 -5
21 3 9 -1 14 -12 14 -10 0 -13 3 -6 8 13 9 12 111 -2 120 -15 10 -24 50 -12
54 11 4 -11 58 -23 58 -5 0 -6 7 -3 15 4 8 1 15 -5 15 -8 0 -9 6 -3 18 12 22
5 42 -16 42 -12 0 -13 3 -5 8 7 4 11 17 10 29 0 12 -5 19 -9 17 -4 -3 -8 7 -8
21 0 15 -5 35 -10 46 -8 14 -7 19 1 19 11 0 8 25 -8 66 -5 13 -3 15 7 9 9 -6
11 -4 5 5 -10 16 -15 54 -18 145 -2 39 -6 76 -11 83 -4 6 -3 12 2 12 6 0 7 14
2 35 -7 33 -5 39 12 36 4 0 3 10 -2 24 -5 14 -7 32 -4 40 4 8 0 22 -7 31 -10
13 -10 17 0 24 9 5 11 19 7 46 -4 22 -8 49 -10 62 -1 12 -13 33 -25 46 -12 13
-23 33 -24 45 -1 11 -5 21 -9 21 -4 0 2 19 15 43 22 43 26 64 26 152 0 99 1
118 11 130 9 11 7 72 -5 204 -5 60 -5 63 12 50 17 -13 17 -12 2 6 -9 11 -17
27 -17 35 -4 80 -13 222 -17 251 -3 20 -2 39 2 42 9 10 11 217 2 250 -4 15 -5
27 -1 27 4 0 7 32 7 70 0 38 2 70 5 70 3 0 6 28 7 63 4 140 20 258 37 269 8 6
8 8 -1 8 -8 0 -9 10 -3 33 5 17 11 52 13 76 3 24 9 46 13 50 9 6 12 19 16 83
2 21 9 40 16 43 6 2 12 13 12 24 0 19 19 71 30 81 3 3 12 18 20 35 8 16 26 39
40 51 21 19 23 25 13 47 -10 20 -10 29 0 39 7 8 13 20 15 28 2 7 10 18 18 24
19 14 26 54 13 77 -7 13 -6 19 2 19 6 0 9 6 6 13 -3 8 -1 20 3 27 5 8 4 22 -1
31 -6 11 -5 20 1 24 21 13 9 43 -22 56 -18 8 -35 14 -38 15 -3 0 -22 8 -42 17
-21 10 -44 17 -51 17 -8 0 -17 3 -21 8 -11 10 -346 9 -346 -2 0 -5 -3 -6 -7
-3 -3 4 -15 0 -25 -10 -10 -9 -18 -11 -18 -6 0 6 -7 14 -16 17 -8 3 -12 2 -9
-3 7 -12 -24 -22 -67 -23 -18 0 -38 -4 -44 -9 -5 -5 -28 -11 -50 -14 -21 -3
-52 -8 -69 -11 -40 -6 -42 -6 -188 -1 -70 3 -130 1 -133 -4 -3 -5 -10 -9 -15
-9 -6 0 -8 4 -4 10 4 6 -4 6 -22 0 -15 -5 -56 -12 -90 -15 -35 -3 -89 -7 -120
-10 -32 -3 -104 -6 -160 -8 -58 -2 -108 -9 -116 -15 -8 -7 -43 -13 -78 -14
-35 0 -68 -3 -73 -6 -4 -2 -29 -6 -54 -8 -25 -2 -53 -11 -63 -20 -23 -21 -213
-21 -234 0 -11 11 -156 14 -330 6 -5 0 -37 2 -70 4 -100 9 -129 9 -149 0 -14
-5 -17 -4 -11 5 6 10 3 11 -15 1 -12 -6 -29 -9 -37 -6 -9 4 -21 2 -27 -3 -17
-14 -103 -19 -171 -10 -33 4 -87 10 -120 13 -33 3 -99 9 -147 15 -47 5 -135 8
-195 5 -81 -4 -121 -1 -163 11 -30 9 -71 18 -90 20 -19 2 -57 11 -84 19 -27 8
-53 13 -57 10 -4 -2 -24 5 -44 17 -53 32 -196 25 -242 -11 -20 -16 -29 -17
-47 -8 -11 6 -25 17 -29 24 -4 8 -18 14 -30 14 -12 0 -28 9 -35 20 -7 11 -20
20 -30 20 -10 0 -23 5 -30 12 -9 9 -18 9 -38 -1 -22 -10 -25 -9 -21 2 3 8 0
14 -6 14 -51 4 -103 18 -110 29 -4 8 -17 14 -27 14 -10 0 -31 5 -45 12 -19 8
-22 14 -13 20 9 6 5 7 -9 3 -16 -4 -23 -2 -23 7 0 10 -2 10 -9 -1 -7 -11 -13
-12 -23 -3 -10 8 -20 7 -38 -3z"/>
</g>
</svg>
